<svg width="206" height="57" viewBox="0 0 206 57" fill="none" xmlns="http://www.w3.org/2000/svg">
<path d="M116.484 0.67627H123.226V7.33738H116.484V0.67627ZM116.712 11.2735H122.999V36.3284H116.712V11.2735Z" fill="black"/>
<path d="M130.801 29.1374C131.558 29.8944 132.543 30.5756 133.755 31.1055C134.967 31.6354 136.33 31.8624 137.845 31.8624C139.209 31.8624 140.269 31.711 141.102 31.3326C141.935 30.9541 142.314 30.4242 142.314 29.5916C142.314 29.2131 142.238 28.9104 142.087 28.6076C141.935 28.3048 141.632 28.002 141.178 27.6992C140.723 27.3965 140.042 27.0937 139.284 26.8666C138.451 26.5638 137.391 26.261 135.951 25.9583C135.118 25.7312 134.209 25.4284 133.3 25.1256C132.391 24.7472 131.482 24.293 130.725 23.6874C129.892 23.0819 129.286 22.3249 128.755 21.4166C128.225 20.5083 127.998 19.5242 127.998 18.3131C127.998 17.102 128.301 15.9666 128.907 14.9826C129.513 13.9985 130.27 13.1659 131.255 12.5604C132.24 11.8791 133.376 11.4249 134.588 11.0465C135.8 10.668 137.088 10.5166 138.3 10.5166C140.496 10.5166 142.39 10.7437 143.905 11.1979C145.42 11.652 146.859 12.3333 148.071 13.3173L144.814 17.7833C144.132 17.2534 143.223 16.7992 142.163 16.4208C141.026 16.0423 139.739 15.8152 138.224 15.8152C136.709 15.8152 135.648 16.0423 135.118 16.4965C134.512 16.9506 134.209 17.4805 134.209 18.1617C134.209 18.9187 134.664 19.5242 135.648 19.9784C136.633 20.4326 138.148 20.8867 140.193 21.4166C141.481 21.7194 142.617 22.0222 143.678 22.4763C144.662 22.9305 145.571 23.4604 146.329 24.0659C147.086 24.6715 147.616 25.4284 147.995 26.3367C148.374 27.2451 148.601 28.2291 148.601 29.4402C148.601 30.6513 148.298 31.711 147.768 32.6951C147.162 33.6791 146.404 34.5117 145.42 35.193C144.435 35.8742 143.299 36.4041 142.011 36.7826C140.723 37.161 139.36 37.3124 137.845 37.3124C135.497 37.3124 133.376 37.0097 131.482 36.3284C129.589 35.6472 128.074 34.6631 126.938 33.452L130.801 29.1374Z" fill="black"/>
<path d="M151.252 23.7631C151.252 21.9465 151.555 20.2055 152.237 18.6159C152.918 17.0263 153.827 15.5881 154.964 14.377C156.176 13.1659 157.539 12.1819 159.205 11.5006C160.872 10.8194 162.69 10.4409 164.659 10.4409C166.629 10.4409 168.447 10.8194 170.113 11.5006C171.779 12.1819 173.219 13.1659 174.355 14.377C175.567 15.5881 176.476 17.0263 177.082 18.6159C177.763 20.2055 178.066 21.9465 178.066 23.7631C178.066 25.5798 177.763 27.3208 177.082 28.9104C176.4 30.4999 175.491 31.9381 174.355 33.1492C173.143 34.3604 171.779 35.3444 170.113 36.0256C168.447 36.7069 166.629 37.0854 164.659 37.0854C162.69 37.0854 160.872 36.7069 159.205 36.0256C157.539 35.3444 156.1 34.3604 154.964 33.1492C153.752 31.9381 152.843 30.4999 152.237 28.9104C151.555 27.3208 151.252 25.5798 151.252 23.7631ZM164.735 31.7111C165.947 31.7111 167.007 31.484 167.916 30.9541C168.825 30.4999 169.583 29.8187 170.113 29.0617C170.719 28.3048 171.173 27.3965 171.401 26.4881C171.704 25.5798 171.855 24.6715 171.855 23.6874C171.855 22.7791 171.704 21.8708 171.401 20.9624C171.098 20.0541 170.643 19.1458 170.113 18.3888C169.507 17.6319 168.75 17.0263 167.916 16.4965C167.007 16.0423 165.947 15.7395 164.735 15.7395C163.523 15.7395 162.463 15.9666 161.554 16.4965C160.645 16.9506 159.887 17.6319 159.357 18.3888C158.751 19.1458 158.296 19.9784 158.069 20.9624C157.766 21.8708 157.615 22.8548 157.615 23.6874C157.615 24.5958 157.766 25.5041 158.069 26.4881C158.372 27.3965 158.827 28.3048 159.357 29.0617C159.963 29.8187 160.72 30.4999 161.554 30.9541C162.463 31.484 163.523 31.7111 164.735 31.7111Z" fill="black"/>
<path d="M72.3224 37.388C65.8081 37.388 60.5059 32.0894 60.5059 25.5797V11.1978H66.7171V25.5797C66.7171 28.6832 69.2168 31.1811 72.3224 31.1811C75.428 31.1811 77.9277 28.6832 77.9277 25.5797V11.1978H84.1389V25.5797C84.1389 32.0894 78.8366 37.388 72.3224 37.388Z" fill="black"/>
<path d="M112.242 36.3284H106.031V22.4006C106.031 19.2971 103.532 16.7992 100.426 16.7992C97.3203 16.7992 94.8206 19.2971 94.8206 22.4006V36.3284H88.6094V22.4006C88.6094 15.8909 93.9117 10.5923 100.426 10.5923C106.94 10.5923 112.242 15.8909 112.242 22.4006V36.3284Z" fill="black"/>
<path d="M205.108 36.3284H198.896V22.4006C198.896 19.2971 196.397 16.7992 193.291 16.7992C190.186 16.7992 187.686 19.2971 187.686 22.4006V36.3284H181.475V22.4006C181.475 15.8909 186.777 10.5923 193.291 10.5923C199.805 10.5923 205.108 15.8909 205.108 22.4006V36.3284Z" fill="black"/>
<path d="M116.484 0.90332H123.226V7.56443H116.484V0.90332ZM116.712 11.5005H122.999V36.5554H116.712V11.5005Z" fill="black"/>
<path d="M130.801 29.3645C131.558 30.1214 132.543 30.8027 133.755 31.3325C134.967 31.8624 136.33 32.0895 137.845 32.0895C139.209 32.0895 140.269 31.9381 141.102 31.5596C141.935 31.1812 142.314 30.6513 142.314 29.8186C142.314 29.4402 142.238 29.1374 142.087 28.8346C141.935 28.5318 141.632 28.2291 141.178 27.9263C140.723 27.6235 140.042 27.3207 139.284 27.0937C138.451 26.7909 137.391 26.4881 135.951 26.1853C135.118 25.9582 134.209 25.6555 133.3 25.3527C132.391 24.9742 131.482 24.52 130.725 23.9145C129.892 23.3089 129.286 22.552 128.755 21.6437C128.225 20.7353 127.998 19.7513 127.998 18.5402C127.998 17.3291 128.301 16.1937 128.907 15.2096C129.513 14.2256 130.27 13.393 131.255 12.7874C132.24 12.1062 133.376 11.652 134.588 11.2735C135.8 10.895 137.088 10.7437 138.3 10.7437C140.496 10.7437 142.39 10.9707 143.905 11.4249C145.42 11.8791 146.859 12.5603 148.071 13.5443L144.814 18.0103C144.132 17.4805 143.223 17.0263 142.163 16.6478C141.026 16.2693 139.739 16.0423 138.224 16.0423C136.709 16.0423 135.648 16.2693 135.118 16.7235C134.512 17.1777 134.209 17.7075 134.209 18.3888C134.209 19.1457 134.664 19.7513 135.648 20.2055C136.633 20.6596 138.148 21.1138 140.193 21.6437C141.481 21.9464 142.617 22.2492 143.678 22.7034C144.662 23.1575 145.571 23.6874 146.329 24.293C147.086 24.8985 147.616 25.6555 147.995 26.5638C148.374 27.4721 148.601 28.4562 148.601 29.6673C148.601 30.8784 148.298 31.9381 147.768 32.9221C147.162 33.9061 146.404 34.7388 145.42 35.42C144.435 36.1013 143.299 36.6311 142.011 37.0096C140.723 37.3881 139.36 37.5395 137.845 37.5395C135.497 37.5395 133.376 37.2367 131.482 36.5555C129.589 35.8742 128.074 34.8902 126.938 33.6791L130.801 29.3645Z" fill="black"/>
<path d="M151.252 23.9902C151.252 22.1735 151.555 20.4326 152.237 18.843C152.918 17.2534 153.827 15.8152 154.964 14.6041C156.176 13.393 157.539 12.4089 159.205 11.7277C160.872 11.0464 162.69 10.668 164.659 10.668C166.629 10.668 168.447 11.0464 170.113 11.7277C171.779 12.4089 173.219 13.393 174.355 14.6041C175.567 15.8152 176.476 17.2534 177.082 18.843C177.763 20.4326 178.066 22.1735 178.066 23.9902C178.066 25.8069 177.763 27.5478 177.082 29.1374C176.4 30.727 175.491 32.1652 174.355 33.3763C173.143 34.5874 171.779 35.5714 170.113 36.2527C168.447 36.9339 166.629 37.3124 164.659 37.3124C162.69 37.3124 160.872 36.9339 159.205 36.2527C157.539 35.5714 156.1 34.5874 154.964 33.3763C153.752 32.1652 152.843 30.727 152.237 29.1374C151.555 27.5478 151.252 25.8069 151.252 23.9902ZM164.735 31.9381C165.947 31.9381 167.007 31.711 167.916 31.1812C168.825 30.727 169.583 30.0458 170.113 29.2888C170.719 28.5319 171.173 27.6235 171.401 26.7152C171.704 25.8069 171.855 24.8985 171.855 23.9145C171.855 23.0062 171.704 22.0978 171.401 21.1895C171.098 20.2812 170.643 19.3728 170.113 18.6159C169.507 17.8589 168.75 17.2534 167.916 16.7235C167.007 16.2694 165.947 15.9666 164.735 15.9666C163.523 15.9666 162.463 16.1937 161.554 16.7235C160.645 17.1777 159.887 17.8589 159.357 18.6159C158.751 19.3728 158.296 20.2055 158.069 21.1895C157.766 22.0978 157.615 23.0819 157.615 23.9145C157.615 24.8228 157.766 25.7312 158.069 26.7152C158.372 27.6235 158.827 28.5319 159.357 29.2888C159.963 30.0458 160.72 30.727 161.554 31.1812C162.463 31.711 163.523 31.9381 164.735 31.9381Z" fill="black"/>
<path d="M72.3224 37.6151C65.8081 37.6151 60.5059 32.3165 60.5059 25.8068V11.4248H66.7171V25.8068C66.7171 28.9102 69.2168 31.4081 72.3224 31.4081C75.428 31.4081 77.9277 28.9102 77.9277 25.8068V11.4248H84.1389V25.8068C84.1389 32.3165 78.8366 37.6151 72.3224 37.6151Z" fill="black"/>
<path d="M112.242 36.5554H106.031V22.6277C106.031 19.5242 103.532 17.0263 100.426 17.0263C97.3203 17.0263 94.8206 19.5242 94.8206 22.6277V36.5554H88.6094V22.6277C88.6094 16.1179 93.9117 10.8193 100.426 10.8193C106.94 10.8193 112.242 16.1179 112.242 22.6277V36.5554Z" fill="black"/>
<path d="M205.108 36.5554H198.896V22.6277C198.896 19.5242 196.397 17.0263 193.291 17.0263C190.186 17.0263 187.686 19.5242 187.686 22.6277V36.5554H181.475V22.6277C181.475 16.1179 186.777 10.8193 193.291 10.8193C199.805 10.8193 205.108 16.1179 205.108 22.6277V36.5554Z" fill="black"/>
<path d="M50.3555 0.600586H0.210938L25.2832 25.6554L50.3555 0.600586Z" fill="#F37F20"/>
<path d="M25.2846 25.6553L4.98438 45.9414C9.5292 52.224 16.9524 56.2358 25.2846 56.2358C33.6167 56.2358 40.9642 52.1483 45.5848 45.9414L25.2846 25.6553Z" fill="#06657C"/>
<path d="M45.5834 45.9416C48.6133 41.7784 50.4312 36.7068 50.4312 31.1811V0.600586L25.2832 25.6554L45.5834 45.9416Z" fill="#55C3BC"/>
<path d="M0.210938 0.600586V31.1811C0.210938 36.7068 2.02887 41.7784 5.05875 45.9416L25.3589 25.6554L0.210938 0.600586Z" fill="#AC1F24"/>
<path d="M50.3555 0.600586H0.210938L25.2832 25.6554L50.3555 0.600586Z" fill="#F37F20"/>
<path d="M25.2846 25.6553L4.98438 45.9414C9.5292 52.224 16.9524 56.2358 25.2846 56.2358C33.6167 56.2358 40.9642 52.1483 45.5848 45.9414L25.2846 25.6553Z" fill="#06657C"/>
<path d="M45.5834 45.9416C48.6133 41.7784 50.4312 36.7068 50.4312 31.1811V0.600586L25.2832 25.6554L45.5834 45.9416Z" fill="#55C3BC"/>
<path d="M0.210938 0.600586V31.1811C0.210938 36.7068 2.02887 41.7784 5.05875 45.9416L25.3589 25.6554L0.210938 0.600586Z" fill="#AC1F24"/>
<path d="M60.582 41.627H67.172V43.3679H62.703V46.0929H66.1116V47.7582H62.703V52.2999H60.582V41.627Z" fill="#736C4C"/>
<path d="M71.5637 52.4515C69.1398 52.4515 67.2461 50.7105 67.2461 48.0612C67.2461 45.4119 69.1398 43.6709 71.6394 43.6709C74.0633 43.6709 76.0328 45.3362 76.0328 48.0612C76.0328 50.7105 74.0633 52.4515 71.5637 52.4515ZM71.5637 50.5591C72.6999 50.5591 73.7603 49.7265 73.7603 48.0612C73.7603 46.3959 72.6999 45.5633 71.5637 45.5633C70.4275 45.5633 69.367 46.3959 69.367 48.0612C69.4428 49.7265 70.4275 50.5591 71.5637 50.5591Z" fill="#736C4C"/>
<path d="M79.2147 52.3001H77.0938V43.8223H79.2147V45.1091C79.7449 44.2008 80.6539 43.6709 81.7901 43.6709V45.9417H81.2598C79.9721 45.9417 79.2147 46.3959 79.2147 48.0612V52.3001Z" fill="#736C4C"/>
<path d="M89.4421 43.6709C90.8055 43.6709 91.7145 44.2765 92.2447 45.0334V43.8223H94.4414V52.3758C94.4414 54.6466 93.0022 56.4633 90.2753 56.4633C87.8514 56.4633 86.185 55.2521 86.0335 53.3598H88.1544C88.3816 54.1167 89.1391 54.6466 90.2753 54.6466C91.4872 54.6466 92.3962 53.9653 92.3962 52.3758V51.089C91.866 51.8459 90.957 52.4515 89.5936 52.4515C87.3969 52.4515 85.7305 50.7105 85.7305 48.0612C85.7305 45.4119 87.3212 43.6709 89.4421 43.6709ZM89.9723 45.5633C88.8361 45.5633 87.6999 46.3959 87.6999 48.0612C87.6999 49.7265 88.7603 50.5591 89.9723 50.5591C91.1843 50.5591 92.2447 49.6508 92.2447 48.0612C92.2447 46.4716 91.1843 45.5633 89.9723 45.5633Z" fill="#736C4C"/>
<path d="M99.7418 52.4515C97.2422 52.4515 95.5 50.7105 95.5 48.0612C95.5 45.4119 97.2422 43.6709 99.7418 43.6709C102.166 43.6709 103.908 45.3362 103.908 47.8341C103.908 48.1369 103.908 48.364 103.832 48.6667H97.6209C97.6967 49.9535 98.6056 50.6348 99.6661 50.6348C100.575 50.6348 101.105 50.1806 101.333 49.5751H103.681C103.226 51.1646 101.863 52.4515 99.7418 52.4515ZM97.6209 47.2285H101.635C101.635 46.0931 100.727 45.4119 99.5903 45.4119C98.6056 45.4119 97.8482 46.0931 97.6209 47.2285Z" fill="#736C4C"/>
<path d="M110.955 47.607C110.955 46.2445 110.198 45.4876 109.061 45.4876C107.925 45.4876 107.168 46.2445 107.168 47.607V52.3001H105.047V43.8223H107.168V44.882C107.698 44.1251 108.607 43.6709 109.743 43.6709C111.713 43.6709 113.152 44.9577 113.152 47.3042V52.3001H111.031V47.607H110.955Z" fill="#736C4C"/>
<path d="M118.3 52.4515C115.801 52.4515 114.059 50.7105 114.059 48.0612C114.059 45.4119 115.801 43.6709 118.3 43.6709C120.724 43.6709 122.467 45.3362 122.467 47.8341C122.467 48.1369 122.467 48.364 122.391 48.6667H116.18C116.255 49.9535 117.164 50.6348 118.225 50.6348C119.134 50.6348 119.664 50.1806 119.891 49.5751H122.239C121.785 51.1646 120.421 52.4515 118.3 52.4515ZM116.255 47.2285H120.27C120.27 46.0931 119.361 45.4119 118.225 45.4119C117.24 45.4119 116.407 46.0931 116.255 47.2285Z" fill="#736C4C"/>
<path d="M125.724 52.3001H123.604V43.8223H125.724V45.1091C126.255 44.2008 127.164 43.6709 128.3 43.6709V45.9417H127.77C126.482 45.9417 125.724 46.3959 125.724 48.0612V52.3001Z" fill="#736C4C"/>
<path d="M132.541 43.6709C133.904 43.6709 134.813 44.3521 135.343 45.0334V43.8223H137.54V52.3001H135.343V51.089C134.813 51.8459 133.904 52.4515 132.541 52.4515C130.42 52.4515 128.678 50.7105 128.678 48.0612C128.678 45.4119 130.42 43.6709 132.541 43.6709ZM133.147 45.5633C132.011 45.5633 130.874 46.3959 130.874 48.0612C130.874 49.7265 131.935 50.5591 133.147 50.5591C134.359 50.5591 135.419 49.6508 135.419 48.0612C135.419 46.4716 134.283 45.5633 133.147 45.5633Z" fill="#736C4C"/>
<path d="M139.662 45.2989H138.678V43.5579H139.662V41.4385H141.859V43.5579H143.753V45.2989H141.859V49.3864C141.859 49.9163 142.086 50.219 142.768 50.219H143.753V52.0357H142.389C140.799 52.0357 139.662 51.3544 139.662 49.3864V45.2989Z" fill="#736C4C"/>
<path d="M144.738 41.2868C144.738 40.6056 145.269 40 146.026 40C146.783 40 147.314 40.5299 147.314 41.2868C147.314 41.9681 146.783 42.5736 146.026 42.5736C145.269 42.5736 144.738 41.9681 144.738 41.2868ZM144.966 43.5576H147.086V52.0354H144.966V43.5576Z" fill="#736C4C"/>
<path d="M152.691 52.5159C150.267 52.5159 148.373 50.7749 148.373 48.1256C148.373 45.4763 150.267 43.7354 152.766 43.7354C155.19 43.7354 157.16 45.4006 157.16 48.1256C157.084 50.7749 155.19 52.5159 152.691 52.5159ZM152.691 50.6235C153.827 50.6235 154.887 49.7909 154.887 48.1256C154.887 46.4603 153.827 45.6277 152.691 45.6277C151.554 45.6277 150.494 46.4603 150.494 48.1256C150.57 49.7909 151.554 50.6235 152.691 50.6235Z" fill="#736C4C"/>
<path d="M164.356 47.6715C164.356 46.309 163.598 45.552 162.462 45.552C161.326 45.552 160.568 46.309 160.568 47.6715V52.3645H158.447V43.8867H160.568V44.9465C161.098 44.1895 162.007 43.7354 163.144 43.7354C165.113 43.7354 166.552 45.0222 166.552 47.3687V52.3645H164.431V47.6715H164.356Z" fill="#736C4C"/>
<path d="M171.475 52.5159C169.354 52.5159 167.839 51.3048 167.764 49.7152H169.96C170.036 50.3965 170.642 50.8506 171.475 50.8506C172.308 50.8506 172.763 50.4722 172.763 49.9423C172.763 48.4284 167.991 49.4124 167.991 46.309C167.991 44.8708 169.279 43.7354 171.324 43.7354C173.369 43.7354 174.657 44.8708 174.732 46.536H172.687C172.611 45.8548 172.081 45.4006 171.248 45.4006C170.415 45.4006 170.036 45.7034 170.036 46.2333C170.036 47.7472 174.732 46.8388 174.808 49.9423C174.808 51.3805 173.52 52.5159 171.475 52.5159Z" fill="#736C4C"/>
<path d="M186.095 41.0972V42.9895H181.096V45.6388C181.474 45.109 182.383 44.7305 183.292 44.7305C185.868 44.7305 186.777 46.6986 186.777 48.4395C186.777 50.7104 185.489 52.3756 182.913 52.3756C180.49 52.3756 179.126 51.0131 178.975 49.1965H181.096C181.247 49.9534 181.929 50.559 182.913 50.559C184.201 50.559 184.731 49.6506 184.731 48.5152C184.731 47.2284 184.125 46.5472 182.913 46.5472C182.004 46.5472 181.474 47.0013 181.247 47.7583H179.202V41.0972H186.095Z" fill="#06657C"/>
<path d="M191.852 40.9458C195.033 40.9458 196.018 43.368 196.018 46.6229C196.018 49.8777 195.033 52.3 191.852 52.3C188.67 52.3 187.686 49.8777 187.686 46.6229C187.761 43.368 188.746 40.9458 191.852 40.9458ZM191.852 42.9139C190.034 42.9139 189.806 44.6548 189.806 46.5472C189.806 48.5152 190.034 50.2562 191.852 50.2562C193.67 50.2562 193.897 48.5152 193.897 46.5472C193.897 44.6548 193.67 42.9139 191.852 42.9139Z" fill="#06657C"/>
<path d="M202.23 42.9141V45.8661H205.109V47.7585H202.23V50.7106H200.185V47.7585H197.307V45.8661H200.185V42.9141H202.23Z" fill="#06657C"/>
</svg>
